<svg width="260" height="182" viewBox="0 0 260 182" fill="none" xmlns="http://www.w3.org/2000/svg">
<path d="M248.275 181.23C256.779 161.701 260.335 140.376 258.628 119.144C256.921 97.9127 250.005 77.4297 238.491 59.5096C226.978 41.5896 211.222 26.7856 192.621 16.409C174.019 6.03241 153.145 0.403512 131.849 0.0209016C110.552 -0.361709 89.4899 4.51378 70.5276 14.2155C51.5653 23.9172 35.2883 38.1457 23.1384 55.6406C10.9885 73.1356 3.34076 93.3569 0.87256 114.513C-1.59564 135.67 1.1919 157.109 8.98828 176.931L17.167 173.714C9.89965 155.237 7.30125 135.253 9.60198 115.532C11.9027 95.8109 19.0315 76.9616 30.357 60.6538C41.6825 44.346 56.855 31.083 74.5306 22.0395C92.2063 12.9961 111.839 8.45145 131.691 8.8081C151.542 9.16475 171 14.4117 188.339 24.0842C205.678 33.7567 220.365 47.5562 231.097 64.2603C241.83 80.9644 248.277 100.058 249.868 119.848C251.458 139.639 248.144 159.517 240.218 177.721L248.275 181.23Z" fill="#2C518D"/>
<path fill-rule="evenodd" clip-rule="evenodd" d="M247.754 179.912C255.906 160.785 259.298 139.96 257.631 119.224C255.938 98.1567 249.075 77.8319 237.65 60.0502C226.225 42.2685 210.591 27.5788 192.133 17.2823C173.675 6.98584 152.963 1.4004 131.831 1.02074C110.699 0.641084 89.799 5.47893 70.9831 15.1057C52.1672 24.7326 36.0159 38.8512 23.9598 56.2111C11.9037 73.5709 4.31497 93.6361 1.86582 114.629C-0.544686 135.291 2.09673 156.225 9.55648 175.633L15.8742 173.148C8.82295 154.779 6.32757 134.969 8.60871 115.416C10.9285 95.5316 18.1164 76.5263 29.5356 60.0834C40.9549 43.6405 56.2531 30.2676 74.0752 21.1493C91.8972 12.031 111.693 7.44866 131.709 7.80827C151.725 8.16787 171.343 13.4583 188.826 23.2109C206.309 32.9635 221.117 46.8773 231.939 63.7197C242.76 80.5622 249.26 99.8135 250.864 119.768C252.442 139.391 249.236 159.098 241.53 177.202L247.754 179.912ZM240.218 177.721C240.218 177.721 240.218 177.721 240.218 177.721C248.144 159.517 251.458 139.639 249.868 119.848C248.277 100.058 241.83 80.9644 231.097 64.2603C220.365 47.5562 205.678 33.7567 188.339 24.0842C171 14.4117 151.542 9.16475 131.691 8.8081C111.839 8.45146 92.2063 12.9961 74.5306 22.0395C56.855 31.083 41.6825 44.346 30.357 60.6538C19.0315 76.9616 11.9027 95.8109 9.60198 115.532C7.30125 135.253 9.89965 155.237 17.167 173.714L8.98828 176.931C8.86624 176.62 8.74543 176.31 8.62585 175.999C1.10592 156.438 -1.55701 135.339 0.87256 114.513C3.34076 93.3569 10.9885 73.1356 23.1384 55.6406C35.2883 38.1457 51.5653 23.9172 70.5276 14.2155C89.4899 4.51378 110.552 -0.361709 131.849 0.0209016C153.145 0.403512 174.019 6.03241 192.621 16.409C211.222 26.7856 226.978 41.5896 238.491 59.5096C250.005 77.4297 256.921 97.9127 258.628 119.144C260.308 140.043 256.889 161.033 248.671 180.311C248.54 180.618 248.409 180.924 248.275 181.23L240.218 177.721Z" fill="#2C518D"/>
<path d="M129.522 30.9727L129.522 6.56993" stroke="#2C518D" stroke-width="7" stroke-linecap="round"/>
<path d="M171.758 41.2461L181.264 18.7713" stroke="#2C518D" stroke-width="7" stroke-linecap="round"/>
<path d="M87.2866 40.8432L75.0853 19.7098" stroke="#2C518D" stroke-width="7" stroke-linecap="round"/>
<path d="M206.019 69.1924L225.223 54.1354" stroke="#2C518D" stroke-width="7" stroke-linecap="round"/>
<path d="M223.995 108.768L247.547 102.382" stroke="#2C518D" stroke-width="7" stroke-linecap="round"/>
<path d="M53.4795 66.6978L34.6636 51.1589" stroke="#2C518D" stroke-width="7" stroke-linecap="round"/>
<path d="M34.1963 105.549L10.1318 101.5" stroke="#2C518D" stroke-width="7" stroke-linecap="round"/>
<path d="M33.4993 148.293L9.3858 152.04" stroke="#2C518D" stroke-width="7" stroke-linecap="round"/>
<path d="M251.344 151.235L227.035 149.099" stroke="#2C518D" stroke-width="7" stroke-linecap="round"/>
</svg>
